<svg width="19" height="19" viewBox="0 0 19 19" fill="none" xmlns="http://www.w3.org/2000/svg">
<g clip-path="url(#clip0_6_473)">
<path fill-rule="evenodd" clip-rule="evenodd" d="M17.5521 1.77389C17.7558 1.97762 17.8248 2.28004 17.7296 2.55198L12.4796 17.552C12.378 17.8422 12.1096 18.0411 11.8023 18.0536C11.495 18.0661 11.2113 17.8898 11.0864 17.6088L8.20353 11.1224L1.71713 8.23958C1.43612 8.11469 1.25982 7.83091 1.27236 7.52365C1.28489 7.21639 1.48372 6.94791 1.77397 6.84633L16.774 1.59633C17.0459 1.50115 17.3483 1.57016 17.5521 1.77389ZM9.66629 10.7203L11.6888 15.2709L15.2281 5.15848L9.66629 10.7203ZM14.1675 4.09782L4.05504 7.63717L8.60563 9.65966L14.1675 4.09782Z" fill="#FF5722"/>
</g>
<defs>
<clipPath id="clip0_6_473">
<rect width="18" height="18" fill="white" transform="translate(0.521729 0.804199)"/>
</clipPath>
</defs>
</svg>
